<svg height="512" viewBox="0 0 512 512" width="512" xmlns="http://www.w3.org/2000/svg"><g id="_FLAT" data-name="/ FLAT"><rect fill="#46c89d" height="384" rx="16" width="224" x="88" y="24"/><path d="m104 408a16 16 0 0 1 -16-16v-98.74518a16.00019 16.00019 0 0 1 4.68628-11.31372l27.31372-27.31372a22.62736 22.62736 0 0 0 0-31.99994v-.00006a22.62743 22.62743 0 0 0 -32 0l-43.31372 43.31372a16.00019 16.00019 0 0 0 -4.68628 11.31372v68.11774a32 32 0 0 1 -9.37256 22.62744l-14.62744 14.62744 24 113.37256 46.62744-46.62744a31.99988 31.99988 0 0 1 22.62738-9.37256h13.49036a31.99994 31.99994 0 0 0 22.62738-9.37262l22.62744-22.62738z" fill="#e8bb85"/><path d="m136 152h184.00017a167.99983 167.99983 0 0 1 167.99983 167.99983v.00034a167.99983 167.99983 0 0 1 -167.99983 167.99983h-16.00034a167.99983 167.99983 0 0 1 -167.99983-167.99983v-168.00017a0 0 0 0 1 0 0z" fill="#f9d6b4"/><rect fill="#bdecdc" height="32" rx="8" width="32" x="120" y="88"/><path d="m464 112h24v16h-24z" fill="#bdecdc"/><path d="m136 24 4.97015 19.88055a16 16 0 0 0 15.52228 12.11945h87.01514a16 16 0 0 0 15.52228-12.11945l4.97015-19.88055z" fill="#00b378"/><g fill="#bdecdc"><rect height="32" rx="8" width="32" x="184" y="88"/><rect height="32" rx="8" width="32" x="248" y="88"/><path d="m376 24h16v24h-16z"/><path d="m352 48h24v16h-24z"/><path d="m376 64h16v24h-16z"/><path d="m392 48h24v16h-24z"/><path d="m448 88h16v24h-16z"/><path d="m424 112h24v16h-24z"/><path d="m448 128h16v24h-16z"/></g><path d="m400 248h-176a16.00016 16.00016 0 0 0 -16 16v112h208v-112a16.00016 16.00016 0 0 0 -16-16z" fill="#00b378"/><path d="m192 376v16a16 16 0 0 0 16 16h208a16 16 0 0 0 16-16v-16z" fill="#00a16c"/><path d="m250.343 322.343 11.314 11.314 10.343-10.343v28.686h16v-28.686l10.343 10.343 11.314-11.314-29.657-29.656z" fill="#bdecdc"/><path d="m362.343 314.343-10.343 10.343v-28.686h-16v28.686l-10.343-10.343-11.314 11.314 29.657 29.656 29.657-29.656z" fill="#bdecdc"/><path d="m344 224c-.36157 0-.72.01343-1.07764.0293l.06958-.0293a32.00533 32.00533 0 1 0 -61.9248.18506l-1.06714-.18506a24 24 0 0 0 0 48h64a24 24 0 0 0 0-48z" fill="#59cea7"/><path d="m241.42059 475.94745a167.52051 167.52051 0 0 0 62.57923 12.05255h16.00036a167.99984 167.99984 0 0 0 167.99982-167.99982v-.00036a167.39491 167.39491 0 0 0 -14.81177-69.07221 336.68249 336.68249 0 0 1 -231.76764 225.01984z" fill="#d4b699"/><path d="m327.18 232.95647-.12816-.1147a7.88379 7.88379 0 0 1 1.2357-12.71416 32.09757 32.09757 0 0 1 5.06291-2.29961 7.94625 7.94625 0 0 1 10.64955 7.44561v.16289a7.96241 7.96241 0 0 1 -5.34789 7.486 16.05357 16.05357 0 0 0 -2.32463 1.03984 7.9621 7.9621 0 0 1 -9.14748-1.00587z" fill="#00a16c"/><path d="m284.0101 244.55945a40.50011 40.50011 0 0 1 -7.02294-9.23232 7.94023 7.94023 0 0 1 4.93509-11.56251l.00838-.00216a8.00032 8.00032 0 0 1 9.01949 3.76534 24.3052 24.3052 0 0 0 4.30378 5.657 8.0124 8.0124 0 0 1 1.213 9.72675 7.94173 7.94173 0 0 1 -12.4568 1.6479z" fill="#00a16c"/><path d="m402.41113 376h13.58887v-16.16943q-6.54309 8.2998-13.58887 16.16943z" fill="#009866"/><path d="m369.59521 408h46.40479a16.00016 16.00016 0 0 0 16-16v-16h-29.58887a338.05041 338.05041 0 0 1 -32.81592 32z" fill="#00895c"/></g></svg>